# Blender v2.76 (sub 0) OBJ File: ''
# www.blender.org
mtllib medium_asteroid.mtl
o Icosphere.003
v -0.383901 -2.134708 -0.028001
v 0.862651 -1.724175 0.866506
v -0.541125 -1.957003 0.934090
v 1.271856 -0.947613 1.195822
v 2.011562 -1.214760 0.139300
v -1.395511 -2.064621 -0.049708
v -0.760588 -2.317458 -1.130258
v 0.682664 -1.694918 -0.526560
v 1.498800 -0.003590 0.415980
v -0.484419 -0.777932 1.771166
v 0.503531 -1.007490 1.651625
v -0.013800 -0.022735 1.999646
v -2.310804 -0.822292 -0.062281
v -1.668127 -1.216415 0.831198
v -1.750125 0.124837 0.310228
v -0.802233 -0.771868 -1.788675
v -2.011281 -1.383398 -1.044777
v -1.291984 0.273188 -1.255136
v 1.412390 -0.816750 -1.017895
v 0.554985 -1.165185 -1.970481
v 1.323746 0.162377 -1.941888
v 1.070023 -0.080082 1.834714
v -1.232609 -0.069374 1.570194
v -1.616000 0.372335 -0.588589
v -0.244255 0.197570 -2.076354
v 2.256170 0.134624 -0.729068
v 0.462873 0.803565 1.695508
v 0.968862 0.782748 0.745638
v 0.327083 1.773937 1.146214
v -1.307625 0.653931 0.769700
v -0.479568 1.023243 1.809308
v -0.793742 1.374916 0.440548
v -1.188392 0.634787 -0.742684
v -1.534955 0.734078 -0.393253
v -1.118684 1.342151 -0.699113
v 0.392100 0.935239 -1.682833
v -0.837193 0.992351 -1.481637
v 0.159227 2.134362 -1.307499
v 1.915778 1.159968 -0.049077
v 1.422115 1.293482 -1.137563
v 1.035496 1.868963 -0.007052
v -0.241559 2.194299 0.049735
vt 0.000000 0.000000
vt 1.000000 0.000000
vt 1.000000 1.000000
vn 0.169800 -0.963800 0.205800
vn 0.606000 -0.559200 0.565700
vn -0.071700 -0.982900 0.169800
vn -0.071900 -0.979700 0.187000
vn 0.389000 -0.921000 0.019800
vn 0.823600 0.230200 0.518400
vn 0.042000 -0.313200 0.948700
vn -0.752200 0.198100 0.628400
vn -0.570700 0.145200 -0.808200
vn 0.745500 -0.420500 -0.517100
vn 0.957100 0.009300 0.289700
vn -0.328500 -0.080000 0.941100
vn -0.862300 0.506300 0.010700
vn -0.607500 0.116500 -0.785800
vn 0.700900 -0.454900 -0.549300
vn 0.826500 0.360400 0.432400
vn -0.694000 0.642800 0.324400
vn -0.689400 0.112000 -0.715600
vn -0.143300 0.270200 -0.952100
vn 0.611400 0.769900 -0.182800
vn 0.248000 0.968300 0.030500
vn 0.561100 0.799300 -0.215000
vn 0.344600 0.340700 -0.874700
vn -0.584900 0.784200 -0.207300
vn -0.615700 0.612800 -0.495400
vn -0.917500 0.113900 -0.381000
vn -0.765400 0.611500 0.200600
vn -0.759300 0.619700 0.198700
vn -0.756100 0.626000 0.190900
vn -0.561200 0.632700 0.533600
vn -0.490400 0.810300 0.320800
vn 0.218300 0.503700 0.835800
vn 0.249800 0.940300 0.230900
vn 0.798900 0.308700 0.516200
vn 0.434500 0.494800 0.752600
vn 0.819700 0.479700 -0.312900
vn 0.749600 0.339100 -0.568500
vn 0.233300 0.550000 -0.801900
vn -0.111300 0.540800 -0.833700
vn -0.605100 0.135600 -0.784500
vn -0.856200 0.487600 -0.171000
vn -0.545600 0.489500 -0.680200
vn -0.964000 0.255600 -0.073500
vn -0.829700 0.521800 0.198200
vn -0.773900 0.432100 0.463000
vn -0.333000 0.023200 0.942600
vn 0.173400 0.250500 0.952500
vn 0.733900 0.563900 0.378600
vn 0.846400 0.452900 0.280200
vn 0.619000 0.090000 0.780200
vn 0.087100 0.409400 -0.908200
vn 0.084800 -0.027600 -0.996000
vn -0.182200 -0.181900 -0.966300
vn -0.579600 0.716400 -0.388300
vn -0.837500 0.306200 -0.452600
vn -0.849200 0.303500 -0.432200
vn -0.843500 0.356800 0.401500
vn -0.915500 0.095800 0.390800
vn -0.514700 -0.317600 0.796400
vn 0.158700 0.259100 0.952700
vn 0.131000 -0.268400 0.954300
vn 0.482500 -0.443800 0.755100
vn 0.835800 -0.082500 0.542800
vn 0.803000 0.212700 0.556800
vn 0.708600 -0.468200 -0.527900
vn 0.636000 -0.704600 -0.314700
vn 0.488500 -0.804300 -0.338300
vn -0.231600 -0.386500 -0.892700
vn -0.340000 -0.376300 -0.861900
vn -0.597300 -0.784400 -0.167400
vn -0.802100 -0.590000 0.092400
vn -0.768400 -0.563000 0.304300
vn -0.503500 -0.694900 0.513300
vn -0.407600 -0.515500 0.753700
vn 0.505300 -0.701300 -0.502900
vn 0.368600 -0.927200 -0.067100
vn 0.354100 -0.932900 -0.065300
vn -0.035500 -0.577400 0.815700
vn 0.149200 -0.695400 0.703000
vn 0.459900 -0.541000 0.704200
usemtl Material.004
s 1
f 1/1/1 2/2/1 3/3/1
f 4/1/2 2/2/2 5/3/2
f 1/1/3 3/2/3 6/3/3
f 1/1/4 6/2/4 7/3/4
f 1/1/5 7/2/5 8/3/5
f 4/1/6 5/2/6 9/3/6
f 10/1/7 11/2/7 12/3/7
f 13/1/8 14/2/8 15/3/8
f 16/1/9 17/2/9 18/3/9
f 19/1/10 20/2/10 21/3/10
f 4/1/11 9/2/11 22/3/11
f 10/1/12 12/2/12 23/3/12
f 13/1/13 15/2/13 24/3/13
f 16/1/14 18/2/14 25/3/14
f 19/1/15 21/2/15 26/3/15
f 27/1/16 28/2/16 29/3/16
f 30/1/17 31/2/17 32/3/17
f 33/1/18 34/2/18 35/3/18
f 36/1/19 37/2/19 38/3/19
f 39/1/20 40/2/20 41/3/20
f 41/1/21 38/2/21 42/3/21
f 41/1/22 40/2/22 38/3/22
f 40/1/23 36/2/23 38/3/23
f 38/1/24 35/2/24 42/3/24
f 38/1/25 37/2/25 35/3/25
f 37/1/26 33/2/26 35/3/26
f 35/1/27 32/2/27 42/3/27
f 35/1/28 34/2/28 32/3/28
f 34/1/29 30/2/29 32/3/29
f 32/1/30 29/2/30 42/3/30
f 32/1/31 31/2/31 29/3/31
f 31/1/32 27/2/32 29/3/32
f 29/1/33 41/2/33 42/3/33
f 29/1/34 28/2/34 41/3/34
f 28/1/35 39/2/35 41/3/35
f 26/1/36 40/2/36 39/3/36
f 26/1/37 21/2/37 40/3/37
f 21/1/38 36/2/38 40/3/38
f 25/1/39 37/2/39 36/3/39
f 25/1/40 18/2/40 37/3/40
f 18/1/41 33/2/41 37/3/41
f 24/1/42 34/2/42 33/3/42
f 24/1/43 15/2/43 34/3/43
f 15/1/44 30/2/44 34/3/44
f 23/1/45 31/2/45 30/3/45
f 23/1/46 12/2/46 31/3/46
f 12/1/47 27/2/47 31/3/47
f 22/1/48 28/2/48 27/3/48
f 22/1/49 9/2/49 28/3/49
f 9/1/50 39/2/50 28/3/50
f 21/1/51 25/2/51 36/3/51
f 21/1/52 20/2/52 25/3/52
f 20/1/53 16/2/53 25/3/53
f 18/1/54 24/2/54 33/3/54
f 18/1/55 17/2/55 24/3/55
f 17/1/56 13/2/56 24/3/56
f 15/1/57 23/2/57 30/3/57
f 15/1/58 14/2/58 23/3/58
f 14/1/59 10/2/59 23/3/59
f 12/1/60 22/2/60 27/3/60
f 12/1/61 11/2/61 22/3/61
f 11/1/62 4/2/62 22/3/62
f 9/1/63 26/2/63 39/3/63
f 9/1/64 5/2/64 26/3/64
f 5/1/65 19/2/65 26/3/65
f 8/1/66 20/2/66 19/3/66
f 8/1/67 7/2/67 20/3/67
f 7/1/68 16/2/68 20/3/68
f 7/1/69 17/2/69 16/3/69
f 7/1/70 6/2/70 17/3/70
f 6/1/71 13/2/71 17/3/71
f 6/1/72 14/2/72 13/3/72
f 6/1/73 3/2/73 14/3/73
f 3/1/74 10/2/74 14/3/74
f 5/1/75 8/2/75 19/3/75
f 5/1/76 2/2/76 8/3/76
f 2/1/77 1/2/77 8/3/77
f 3/1/78 11/2/78 10/3/78
f 3/1/79 2/2/79 11/3/79
f 2/1/80 4/2/80 11/3/80
